PathFileType	4	(X/Y/Z)	56_1_23_p0_0-171.trc
DataRate	CameraRate	NumFrames	NumMarkers	Units	OrigDataRate	OrigDataStartFrame	OrigNumFrames
59.0	59.0	6	27	m	59.0	86	172
Frame#	Time	RHip			RKnee			RAnkle			RBigToe			RSmallToe			RHeel			LHip			LKnee			LAnkle			LBigToe			LSmallToe			LHeel			Neck			Head			Nose			RShoulder			RElbow			RWrist			RThumb			RIndex			RPinky			LShoulder			LElbow			LWrist			LThumb			LIndex			LPinky			
		X1	Y1	Z1	X2	Y2	Z2	X3	Y3	Z3	X4	Y4	Z4	X5	Y5	Z5	X6	Y6	Z6	X7	Y7	Z7	X8	Y8	Z8	X9	Y9	Z9	X10	Y10	Z10	X11	Y11	Z11	X12	Y12	Z12	X13	Y13	Z13	X14	Y14	Z14	X15	Y15	Z15	X16	Y16	Z16	X17	Y17	Z17	X18	Y18	Z18	X19	Y19	Z19	X20	Y20	Z20	X21	Y21	Z21	X22	Y22	Z22	X23	Y23	Z23	X24	Y24	Z24	X25	Y25	Z25	X26	Y26	Z26	X27	Y27	Z27	
86	1.4576271186440677	0.4230405601878485	0.5789257720219994	0.2937818038183605	0.4352983350821087	0.7828580516118829	0.6823349329023461	0.47900358226139145	1.0258610739904754	1.0796579185685053	0.4017451536836949	0.8591688485631171	1.1422371519597727	0.47693814198938705	0.9126575930686005	1.1589152036096717	0.5071678397859336	1.1469774148698801	1.1118373902104892	0.22379279680719452	0.6831352675377234	0.2547253329941179	0.28936775113791263	0.9083746065718475	0.6553974840785207	0.31391772976508575	1.0898210282738143	1.037112886779022	0.25050846808438465	0.9199090034792288	1.1291791759448568	0.23052150574145863	0.9994268664209967	1.1298637969794731	0.35837341779792214	1.171855689716429	1.0982991841056875	0.3408828740976872	0.4718281468015797	-0.22493078469794503	0.3144425372315859	0.35504114861271496	-0.4319486065305895	0.33173223324411694	0.31954804107166557	-0.2978274318147922	0.481411215031592	0.45569667965702654	-0.13928055373275874	0.5637186359979783	0.5148017113625795	0.11273136697741107	0.5661413577465098	0.5762591920629205	0.3634814487275562	0.5228614910836786	0.5665416572407087	0.4856601599587253	0.5339696451253686	0.5648592701567076	0.5055282870619524	0.5830482160898587	0.6189175784124108	0.49775241478967974	0.19410546081241883	0.5700555804638937	-0.19244440876541702	-0.029858904721347203	0.5726817878782161	-0.1511594281759184	0.11960485669779357	0.5853268616096817	-0.335884027198627	0.17491946094807073	0.5103076122729056	-0.34892068209868	0.17299091715707696	0.593835192077061	-0.3823686640880459	0.13556968842481912	0.6026203958888103	-0.3830400518168111
87	1.4745762711864407	0.4230349023373909	0.5788731463533194	0.2938392842698058	0.4304488470447193	0.7811229305296453	0.6817424496744319	0.4788898292940348	1.0255251371746055	1.0795004898291038	0.3938586455591871	0.847212583356739	1.1387714276739132	0.46352344502052223	0.8987597755127783	1.1543358440342588	0.5074527532470872	1.1470662535590346	1.1117809422307856	0.2236443618435677	0.6830875715958427	0.25870041556039913	0.2893950115185974	0.9084300192518476	0.6554158007696539	0.31389767170533595	1.0897611936030676	1.0369251747187112	0.24215871040476575	0.8914360428573316	1.125139495438318	0.23060146953906735	1.000180264912052	1.12543923650875	0.35687664972470434	1.1688523552170107	1.0937173512504346	0.34086598868358653	0.4722585556897155	-0.22501691922188807	0.32145868067821504	0.3636966241177559	-0.4376724635340819	0.33182750095044666	0.3194474058036288	-0.2979112542795181	0.48142762382276455	0.4558501226743611	-0.1393216871130985	0.5635921570815272	0.5148800161949719	0.11271534059138938	0.5658451932857769	0.576019917357362	0.36344962562526034	0.5239870919647761	0.5688852341587434	0.48991938105134675	0.5337536491359416	0.5647486455246384	0.5057735880668894	0.5785180788783344	0.6179343765352344	0.4975668180733366	0.1937528225803946	0.5716801301110465	-0.18521313021204663	-0.0259464144441728	0.5751330582096484	-0.14440049239571012	0.11254840838988435	0.5896810700268201	-0.33272039674103226	0.17533095964399417	0.5666902159051452	-0.3563634180053168	0.17198796409837688	0.6073980175343403	-0.3927392781760254	0.12984726410897154	0.631543736662558	-0.38232081884630614
88	1.4915254237288136	0.4229614407105923	0.5788173263049413	0.2938573787511433	0.4304713122592904	0.7812576198567831	0.6817417766632679	0.4786705279575383	1.025160322732565	1.0794091293119257	0.3938222316743723	0.8470796012484862	1.1386814928924271	0.4686782342668004	0.9001080028710361	1.155342775569774	0.5067778782273753	1.1498078210565632	1.1170178393434886	0.22373774632440124	0.6832891457428508	0.258711717742377	0.28941071981606326	0.9084140388635248	0.6553895685658748	0.3131874475785031	1.0923807101386527	1.0416979135006412	0.2422164435583769	0.8914549331333227	1.1250982930589704	0.2305407865211363	1.0001070457007009	1.125430051119618	0.35685225758688377	1.16889090074235	1.0938452558661629	0.3401306828173173	0.47037858578820746	-0.22812368771061153	0.32108982382546597	0.36366392887852356	-0.4378297987336419	0.33207667038864147	0.31968431425799604	-0.2980700488203128	0.48134106741344734	0.45572205296849355	-0.13938144518601636	0.5638832048525061	0.5149903255948222	0.11611969922643184	0.5660773675782524	0.5762388346488189	0.36360624459610624	0.5211211440942364	0.5860460606130288	0.497653224606306	0.5293026437617163	0.5643326150480497	0.5054754540279637	0.5790332164297233	0.6181191717085234	0.5011183109213759	0.19377436530941336	0.5716880089639441	-0.18498927732352982	-0.02224547445874626	0.576955352611474	-0.13764806950828487	0.10837904741276808	0.590542178556544	-0.32546486128240876	0.16845840644066365	0.6075255036157953	-0.3713880590959652	0.1649049899979158	0.6178347174752128	-0.391463392592942	0.1295840005803812	0.6260381683360906	-0.38028537492190384
89	1.5084745762711864	0.4186760710657941	0.5785962293028765	0.2937001052005293	0.43039382928573716	0.7811942913104751	0.6819804381244771	0.470136242866799	1.0113967973406086	1.0757084575157847	0.3942099683027354	0.8475330542277	1.1386065295773387	0.46929172423362225	0.9007078562015631	1.155261363269339	0.49732289252844236	1.131010852402085	1.1074671636451257	0.22392341728393325	0.6990178512963794	0.2583216043222273	0.28890245018587385	0.9104090827616782	0.6593051257903296	0.31323095000577683	1.0924824651100136	1.041708498089266	0.24322256207695186	0.9061733650190461	1.1251031180694	0.23058479943136745	1.0001404737302158	1.1254273040160667	0.3568481880280232	1.1690037840519114	1.093894907233706	0.3402144673747941	0.4704782880988398	-0.22811378992456072	0.3217878986992063	0.3654282206628056	-0.43493657534095104	0.33900024765419723	0.32848010907209124	-0.30045187332636586	0.48141937235341403	0.455821399541499	-0.13939215461273838	0.563638317249573	0.5161511187879108	0.11973865995102918	0.5656915369906536	0.5758450085872913	0.3635518063121658	0.5212166376818297	0.5862816415795848	0.49754833500377804	0.5292859967987159	0.5646355590016408	0.5054868844710361	0.5780982981389126	0.6181257098767854	0.5012773381829446	0.19371917152000537	0.5721692343587124	-0.18137651355455275	-0.0212852102084942	0.5801269457865428	-0.12668152402800245	0.10843140497154803	0.5933611421836412	-0.31842770831776096	0.16272826852523192	0.6070480873751175	-0.3682744180248348	0.1502991160001393	0.6285830280847992	-0.397203481859948	0.12343526825192264	0.6627180624275829	-0.38809278304375655
90	1.5254237288135593	0.41861084167705354	0.5785180630922916	0.2936001884086972	0.43037094717086183	0.7810692200785695	0.681792516526239	0.47019560051703907	1.011273365432908	1.0756482878155604	0.39416471890753185	0.8474531647455262	1.1386035474041514	0.4692044358774407	0.9006128041165488	1.1552702625876856	0.49739852999801254	1.1310423183246086	1.1074561737279076	0.22361312714931003	0.6831245202820302	0.2586804046766299	0.28941851512098254	0.9083632608079037	0.655346953702945	0.3132261744547693	1.0925013073614092	1.041710621784848	0.2433086375317161	0.906458619101641	1.1250806700505496	0.2305475837436402	1.0001481866301423	1.1253944202884656	0.35676215228040725	1.1689032774213886	1.0938785422702533	0.34051344839078174	0.46963626038782497	-0.23177663521680858	0.3220832905377003	0.36575773289125224	-0.4348844809739812	0.3393786259413676	0.3277825530664048	-0.3038437957929549	0.48152612892971375	0.4556711091041321	-0.1393922970989987	0.5624278867752537	0.5139618903947312	0.11276728838927143	0.5656663901953111	0.5761067872041042	0.36364281359826917	0.5226738107907927	0.6024843128247385	0.4982626543281113	0.5292674199379489	0.5651653813130437	0.505435376831909	0.5777014353039958	0.6168979874075197	0.5013019672939729	0.1940374186677127	0.5712242118692787	-0.18478950513884998	-0.020356821067682492	0.5847456567916808	-0.11551073579843549	0.10219608472871267	0.6001932650261094	-0.31688571693028694	0.15703681127449384	0.5990742430827655	-0.3663831188748882	0.14083874413640735	0.6412231213743711	-0.4004623525887318	0.1066642628379436	0.6911493917891547	-0.39443846267208976
91	1.5423728813559323	0.4189532771132321	0.5771668041968117	0.29004274620270737	0.43169233037880134	0.7834324647749505	0.6860261568594792	0.4702484140961944	1.012019127315492	1.0712213877411516	0.4019580815793822	0.8594106229678428	1.141818436581682	0.46981743724731984	0.9015962479321341	1.1550902602277304	0.49670745406885825	1.1300435340282557	1.1070438555605198	0.22357372577935852	0.683049524158221	0.2586799940446235	0.28928632469253013	0.908235289499904	0.6553458928993794	0.31897115548844357	1.091861140021999	1.0336221232317757	0.24320424131698573	0.9061827563184376	1.125085342461417	0.23058830184255102	1.00024789947722	1.1254859103936923	0.3488775104417979	1.15507133714336	1.0903251666509788	0.3405627371782972	0.469767588794135	-0.23218178441197213	0.32198595513433365	0.36578848766691835	-0.43497433106773326	0.3393763073802171	0.3277070879703065	-0.3039542622150109	0.48155850469470435	0.45561094183594286	-0.13933634782495588	0.5590467506520352	0.5155036879891185	0.11632926419577105	0.565190499295673	0.5774920637033142	0.36750085334059185	0.524135534006396	0.6189613276801188	0.49519155789693925	0.5309279599227366	0.5804653499507196	0.5062001845793987	0.5819299519981022	0.617028418555361	0.5015374408217158	0.1941875725775951	0.5713650637552337	-0.18457263245456126	-0.014123822051629252	0.5990537402111504	-0.10571099688212876	0.09726509329078488	0.5967821005911776	-0.31972491607746134	0.13587353993133983	0.6069557290136143	-0.36555572753485954	0.12357635564788731	0.6727324393308781	-0.4068089040910501	0.07943247616957547	0.6948996777122446	-0.3831469872083585
